<svg width="40" height="40" viewBox="0 0 40 40" fill="none" xmlns="http://www.w3.org/2000/svg">
<path d="M20 40C31.0457 40 40 31.0457 40 20C40 8.95431 31.0457 0 20 0C8.95431 0 0 8.95431 0 20C0 31.0457 8.95431 40 20 40Z" fill="url(#paint0_linear_37_790)"/>
<path d="M7.44848 20.9783C9.78648 19.6905 12.3963 18.6156 14.8348 17.5353C19.03 15.7658 23.2418 14.027 27.4961 12.4081C28.3238 12.1323 29.8111 11.8626 29.957 13.0893C29.877 14.8256 29.5486 16.5518 29.3233 18.278C28.7515 22.074 28.0903 25.857 27.4458 29.6405C27.2236 30.9006 25.645 31.5531 24.6348 30.7466C22.2071 29.1066 19.7608 27.483 17.3641 25.805C16.5791 25.0073 17.3071 23.8616 18.0081 23.292C20.0076 21.3215 22.1281 19.6473 24.0231 17.575C24.5343 16.3406 23.024 17.381 22.5258 17.6998C19.7885 19.5861 17.1181 21.5876 14.2321 23.2455C12.758 24.057 11.0398 23.3635 9.56631 22.9105C8.24514 22.3636 6.30914 21.8125 7.44831 20.9785L7.44848 20.9783Z" fill="white"/>
<defs>
<linearGradient id="paint0_linear_37_790" x1="26.6683" y1="6.668" x2="16.6683" y2="30" gradientUnits="userSpaceOnUse">
<stop stop-color="#37AEE2"/>
<stop offset="1" stop-color="#1E96C8"/>
</linearGradient>
</defs>
</svg>
