<svg width="66" height="82" viewBox="0 0 66 82" fill="none" xmlns="http://www.w3.org/2000/svg">
<path d="M49.8821 27.2135V37.6725C49.8821 42.1794 48.0742 46.5017 44.8561 49.6886C41.638 52.8754 37.2733 54.6658 32.7222 54.6658C28.171 54.6658 23.8063 52.8754 20.5882 49.6886C17.3701 46.5017 15.5622 42.1794 15.5622 37.6725V25.9063C15.5622 25.9063 31.4022 25.9063 39.3222 19.3705C39.3222 19.3705 44.6022 18.0633 49.8821 27.2135Z" fill="#FFDAAA"/>
<path d="M49.9119 21.7937V27.0224C44.6319 17.8722 39.3519 19.1793 39.3519 19.1793C31.4319 25.7152 15.5919 25.7152 15.5919 25.7152V21.7937C15.5919 17.2868 17.3999 12.9645 20.618 9.77763C23.8361 6.59077 28.2008 4.80042 32.7519 4.80042C37.303 4.80042 41.6678 6.59077 44.8859 9.77763C48.104 12.9645 49.9119 17.2868 49.9119 21.7937Z" fill="#FF9811"/>
<path d="M43.1884 58.4697C42.53 63.8879 32.7521 70.28 32.7521 70.28C32.7521 70.28 22.9726 63.8863 22.3159 58.468L22.3175 58.4664C22.6911 58.1597 22.9919 57.7752 23.1983 57.3402C23.4048 56.9053 23.5119 56.4307 23.5121 55.9501V51.8586H23.6029C26.3428 53.5667 29.5145 54.473 32.7521 54.473C35.9897 54.473 39.1614 53.5667 41.9014 51.8586H41.9921V55.9501C41.9919 56.4306 42.0987 56.9052 42.3049 57.3401C42.5111 57.7751 42.8116 58.1596 43.1851 58.4664C43.1867 58.468 43.1884 58.468 43.1884 58.4697Z" fill="#FFDAAA"/>
<path d="M64.4322 74.7113V79.3093H1.07225V74.7113C1.07258 71.8882 1.99562 69.1411 3.70336 66.8806C5.4111 64.6202 7.81181 62.9678 10.5465 62.1706L21.1428 59.0857C21.5724 58.9612 21.9716 58.751 22.316 58.468C22.9727 63.8863 32.7522 70.28 32.7522 70.28C32.7522 70.28 42.5301 63.8879 43.1885 58.4696C43.5328 58.7515 43.9313 58.9611 44.36 59.0857L54.9563 62.1706C57.6913 62.9674 60.0925 64.6197 61.8005 66.8802C63.5086 69.1407 64.4319 71.888 64.4322 74.7113Z" fill="#45E4BE"/>
<path d="M22.3159 58.4664H22.3185L22.3159 58.469V58.4664Z" fill="#E0E0E2"/>
<path d="M43.1883 58.4664V58.4697C43.1883 58.4681 43.1867 58.4681 43.185 58.4664H43.1883ZM10.9718 27.0232H15.5918V41.4021H10.9718C10.0965 41.4021 9.25717 41.0578 8.6383 40.445C8.01943 39.8321 7.67176 39.0009 7.67176 38.1342V30.2911C7.67176 29.862 7.75711 29.437 7.92295 29.0405C8.08879 28.6441 8.33187 28.2838 8.6383 27.9803C8.94474 27.6769 9.30853 27.4362 9.7089 27.272C10.1093 27.1077 10.5384 27.0232 10.9718 27.0232Z" fill="#E0E0E2"/>
<path d="M54.5312 41.4021H49.9112V27.0232H54.5312C55.4064 27.0232 56.2458 27.3675 56.8646 27.9803C57.4835 28.5932 57.8312 29.4244 57.8312 30.2911V38.1342C57.8312 39.0009 57.4835 39.8321 56.8646 40.4449C56.2458 41.0578 55.4064 41.4021 54.5312 41.4021Z" fill="#E0E0E2"/>
<path d="M38.0317 42.7092C38.0317 44.096 37.4754 45.4259 36.4852 46.4065C35.495 47.387 34.1521 47.9379 32.7517 47.9379C31.3514 47.9379 30.0084 47.387 29.0182 46.4065C28.028 45.4259 27.4717 44.096 27.4717 42.7092H38.0317Z" fill="#FF5023"/>
<path d="M55.1917 74.0815H43.3117V79.3102H55.1917V74.0815Z" fill="#E0E0E2"/>
<path d="M63.1059 66.5254C61.2324 64.033 58.589 62.2139 55.5769 61.3441L44.9806 58.2591C44.5715 58.138 44.2125 57.8897 43.9567 57.5511C43.7009 57.2125 43.5618 56.8013 43.56 56.3784V52.9177C46.988 50.5483 49.5073 47.1017 50.7094 43.1367H54.78C56.0049 43.1354 57.1792 42.653 58.0453 41.7952C58.9114 40.9375 59.3986 39.7746 59.4 38.5616V30.7186C59.3984 29.6189 58.9975 28.5565 58.2705 27.7252C57.5435 26.894 56.5388 26.3494 55.44 26.1909V22.222C55.44 9.96884 45.3733 0 33 0C20.6266 0 10.56 9.96884 10.56 22.222V26.1909C9.46113 26.3494 8.45649 26.894 7.72948 27.7252C7.00247 28.5565 6.60158 29.6189 6.6 30.7186V38.5616C6.60135 39.7746 7.08853 40.9375 7.95466 41.7952C8.82078 42.653 9.99511 43.1354 11.22 43.1367H11.88V45.0975C11.8813 46.3105 12.3685 47.4734 13.2347 48.3311C14.1008 49.1888 15.2751 49.6713 16.5 49.6726H18.8562C19.9031 50.9041 21.1079 51.995 22.44 52.9177V56.3784C22.4382 56.8013 22.2991 57.2125 22.0433 57.5511C21.7875 57.8897 21.4285 58.138 21.0193 58.2591L10.423 61.3441C7.41439 62.2207 4.77316 64.0383 2.89435 66.525C1.01555 69.0117 0.000145311 72.0339 0 75.1396V79.7376C0 80.0843 0.139071 80.4168 0.386619 80.6619C0.634167 80.9071 0.969914 81.0448 1.32 81.0448H64.68C65.03 81.0448 65.3658 80.9071 65.6133 80.6619C65.8609 80.4168 66 80.0843 66 79.7376V75.1396C66.0073 72.0329 64.9912 69.0085 63.1059 66.5254ZM48.84 23.1958C43.9725 17.2743 39.4977 18.2857 39.2799 18.3397C39.0871 18.3868 38.9076 18.4767 38.7552 18.6027C32.5891 23.6925 21.0523 24.6272 17.16 24.7987V22.222C17.16 18.0618 18.8288 14.0719 21.7994 11.1302C24.77 8.18851 28.799 6.53587 33 6.53587C37.201 6.53587 41.23 8.18851 44.2005 11.1302C47.1711 14.0719 48.84 18.0618 48.84 22.222V23.1958ZM56.76 30.7186V38.5616C56.7595 39.0815 56.5508 39.58 56.1796 39.9476C55.8083 40.3153 55.305 40.522 54.78 40.5224H51.48V28.7578H54.78C55.305 28.7583 55.8083 28.965 56.1796 29.3326C56.5508 29.7002 56.7595 30.1987 56.76 30.7186ZM13.2 22.222C13.2 17.0217 15.2861 12.0344 18.9993 8.35729C22.7125 4.68014 27.7487 2.61435 33 2.61435C38.2513 2.61435 43.2875 4.68014 47.0007 8.35729C50.7139 12.0344 52.8 17.0217 52.8 22.222V26.1435H51.48V22.222C51.48 17.3684 49.533 12.7136 46.0673 9.2816C42.6016 5.8496 37.9012 3.92152 33 3.92152C28.0988 3.92152 23.3983 5.8496 19.9327 9.2816C16.467 12.7136 14.52 17.3684 14.52 22.222V26.1435H13.2V22.222ZM11.22 40.5224C10.695 40.522 10.1916 40.3153 9.82041 39.9476C9.44918 39.58 9.24043 39.0815 9.23999 38.5616V30.7186C9.24043 30.1987 9.44918 29.7002 9.82041 29.3326C10.1916 28.965 10.695 28.7583 11.22 28.7578H14.52V40.5224H11.22ZM16.5 47.0583C15.975 47.0578 15.4716 46.8511 15.1004 46.4835C14.7292 46.1159 14.5204 45.6174 14.52 45.0975V43.1367H15.2905C15.703 44.5058 16.2767 45.822 16.9999 47.0583H16.5ZM20.1415 47.0583C18.2001 44.3949 17.1568 41.1928 17.16 37.9081V27.418C19.7766 27.3081 22.3841 27.0402 24.9678 26.6157C31.5793 25.5242 36.6828 23.5863 40.1478 20.8511C41.1378 20.7873 44.847 21.0586 48.84 27.802V37.9081C48.8418 40.9261 47.9639 43.8806 46.3116 46.4166C44.6593 48.9526 42.3029 50.9624 39.5253 52.2047C36.7478 53.4469 33.6672 53.8688 30.6535 53.4196C27.6397 52.9705 24.821 51.6694 22.5357 49.6726H23.76C24.1101 49.6726 24.4458 49.5349 24.6934 49.2898C24.9409 49.0446 25.08 48.7121 25.08 48.3654C25.08 48.0188 24.9409 47.6863 24.6934 47.4411C24.4458 47.196 24.1101 47.0583 23.76 47.0583H20.1415ZM42.0106 59.3163C41.0916 62.8408 35.7868 67.1708 33 69.1234C30.2115 67.1724 24.9084 62.8457 23.9893 59.3163C24.6901 58.4943 25.0762 57.4542 25.08 56.3784V54.4405C27.5548 55.6046 30.2602 56.2085 33 56.2085C35.7397 56.2085 38.4452 55.6046 40.92 54.4405V56.3784C40.924 57.4541 41.3101 58.4941 42.0106 59.3163ZM54.12 78.4305H44.88V75.8161H54.12V78.4305ZM63.36 78.4305H56.76V74.5089C56.76 74.1622 56.6209 73.8298 56.3733 73.5846C56.1258 73.3395 55.7901 73.2018 55.44 73.2018H43.56C43.2099 73.2018 42.8741 73.3395 42.6266 73.5846C42.379 73.8298 42.24 74.1622 42.24 74.5089V78.4305H2.64V75.1396C2.65033 72.6012 3.48493 70.1334 5.02047 68.1008C6.55601 66.0682 8.71105 64.5786 11.1672 63.8522L21.6958 60.7869C22.506 62.9192 24.3292 65.2705 27.1392 67.7999C28.7549 69.2489 30.4701 70.5854 32.2723 71.7998C32.4884 71.9405 32.7414 72.0155 33 72.0155C33.2586 72.0155 33.5115 71.9405 33.7276 71.7998C35.5299 70.5854 37.245 69.2489 38.8608 67.7999C41.6707 65.2705 43.494 62.9192 44.3041 60.7869L54.8328 63.8522C57.2889 64.5786 59.444 66.0682 60.9795 68.1008C62.515 70.1334 63.3496 72.6012 63.36 75.1396V78.4305Z" fill="black"/>
<path d="M26.1917 32.2314V30.9242C26.1917 30.5776 26.0526 30.2451 25.8051 29.9999C25.5575 29.7548 25.2218 29.6171 24.8717 29.6171C24.5216 29.6171 24.1859 29.7548 23.9383 29.9999C23.6908 30.2451 23.5517 30.5776 23.5517 30.9242V32.2314C23.5517 32.5781 23.6908 32.9106 23.9383 33.1557C24.1859 33.4009 24.5216 33.5386 24.8717 33.5386C25.2218 33.5386 25.5575 33.4009 25.8051 33.1557C26.0526 32.9106 26.1917 32.5781 26.1917 32.2314ZM40.7117 33.5386C41.0618 33.5386 41.3975 33.4009 41.6451 33.1557C41.8926 32.9106 42.0317 32.5781 42.0317 32.2314V30.9242C42.0317 30.5776 41.8926 30.2451 41.6451 29.9999C41.3975 29.7548 41.0618 29.6171 40.7117 29.6171C40.3616 29.6171 40.0259 29.7548 39.7783 29.9999C39.5308 30.2451 39.3917 30.5776 39.3917 30.9242V32.2314C39.3917 32.5781 39.5308 32.9106 39.7783 33.1557C40.0259 33.4009 40.3616 33.5386 40.7117 33.5386ZM32.7917 49.2247C34.5415 49.2227 36.2191 48.5335 37.4564 47.3082C38.6937 46.0829 39.3897 44.4216 39.3917 42.6888C39.3917 42.3421 39.2526 42.0096 39.0051 41.7645C38.7575 41.5194 38.4218 41.3816 38.0717 41.3816H27.5117C27.1616 41.3816 26.8259 41.5194 26.5783 41.7645C26.3308 42.0096 26.1917 42.3421 26.1917 42.6888C26.1937 44.4216 26.8897 46.0829 28.127 47.3082C29.3643 48.5335 31.0419 49.2227 32.7917 49.2247ZM36.5255 43.996C36.2526 44.7607 35.747 45.4229 35.0783 45.8912C34.4096 46.3596 33.6107 46.6111 32.7917 46.6111C31.9727 46.6111 31.1738 46.3596 30.5051 45.8912C29.8364 45.4229 29.3308 44.7607 29.0579 43.996H36.5255Z" fill="black"/>
</svg>
