<svg width="40" height="40" viewBox="0 0 40 40" fill="none" xmlns="http://www.w3.org/2000/svg">
<path d="M20 40C8.97191 40 0 31.0276 0 20C0 8.97238 8.97238 0 20 0C31.0276 0 40 8.97238 40 20C40 31.0276 31.0281 40 20 40ZM20 1.89945C10.0192 1.89945 1.89992 10.0192 1.89992 19.9995C1.89992 29.9798 10.0197 38.0996 20 38.0996C29.9803 38.0996 38.1001 29.9798 38.1001 19.9995C38.1001 10.0192 29.9808 1.89945 20 1.89945ZM26.7438 11.8854C25.9263 11.8854 25.2637 12.548 25.2637 13.3655C25.2637 14.1829 25.9268 14.8455 26.7438 14.8455C27.5607 14.8455 28.2238 14.1829 28.2238 13.3655C28.2238 12.548 27.5612 11.8854 26.7438 11.8854ZM20.1643 13.783C16.7364 13.783 13.9473 16.5721 13.9473 19.9995C13.9473 23.427 16.7364 26.2165 20.1643 26.2165C23.5923 26.2165 26.3814 23.4275 26.3814 19.9995C26.3814 16.5716 23.5923 13.783 20.1643 13.783ZM20.1643 23.9827C17.9685 23.9827 16.1821 22.1958 16.1821 20C16.1821 17.8042 17.9685 16.0178 20.1643 16.0178C22.3602 16.0178 24.1471 17.8042 24.1471 20C24.1471 22.1958 22.3602 23.9827 20.1643 23.9827ZM32.7086 14.8332C32.7086 10.6453 29.3139 7.25058 25.1255 7.25058H15.1177C10.9293 7.25058 7.53461 10.6453 7.53461 14.8332V24.842C7.53461 29.0299 10.9293 32.4245 15.1177 32.4245H25.1255C29.3139 32.4245 32.7086 29.0299 32.7086 24.842V14.8332ZM30.3337 24.842C30.3337 27.7184 28.002 30.0496 25.1255 30.0496H15.1177C12.2412 30.0496 9.90952 27.7184 9.90952 24.842V14.8332C9.90952 11.9572 12.2412 9.62548 15.1177 9.62548H25.1255C28.002 9.62548 30.3337 11.9572 30.3337 14.8332V24.842Z" fill="url(#paint0_linear_37_801)"/>
<path d="M20 40C8.97191 40 0 31.0276 0 20C0 8.97238 8.97238 0 20 0C31.0276 0 40 8.97238 40 20C40 31.0276 31.0281 40 20 40ZM20 1.89945C10.0192 1.89945 1.89992 10.0192 1.89992 19.9995C1.89992 29.9798 10.0197 38.0996 20 38.0996C29.9803 38.0996 38.1001 29.9798 38.1001 19.9995C38.1001 10.0192 29.9808 1.89945 20 1.89945ZM26.7438 11.8854C25.9263 11.8854 25.2637 12.548 25.2637 13.3655C25.2637 14.1829 25.9268 14.8455 26.7438 14.8455C27.5607 14.8455 28.2238 14.1829 28.2238 13.3655C28.2238 12.548 27.5612 11.8854 26.7438 11.8854ZM20.1643 13.783C16.7364 13.783 13.9473 16.5721 13.9473 19.9995C13.9473 23.427 16.7364 26.2165 20.1643 26.2165C23.5923 26.2165 26.3814 23.4275 26.3814 19.9995C26.3814 16.5716 23.5923 13.783 20.1643 13.783ZM20.1643 23.9827C17.9685 23.9827 16.1821 22.1958 16.1821 20C16.1821 17.8042 17.9685 16.0178 20.1643 16.0178C22.3602 16.0178 24.1471 17.8042 24.1471 20C24.1471 22.1958 22.3602 23.9827 20.1643 23.9827ZM32.7086 14.8332C32.7086 10.6453 29.3139 7.25058 25.1255 7.25058H15.1177C10.9293 7.25058 7.53461 10.6453 7.53461 14.8332V24.842C7.53461 29.0299 10.9293 32.4245 15.1177 32.4245H25.1255C29.3139 32.4245 32.7086 29.0299 32.7086 24.842V14.8332ZM30.3337 24.842C30.3337 27.7184 28.002 30.0496 25.1255 30.0496H15.1177C12.2412 30.0496 9.90952 27.7184 9.90952 24.842V14.8332C9.90952 11.9572 12.2412 9.62548 15.1177 9.62548H25.1255C28.002 9.62548 30.3337 11.9572 30.3337 14.8332V24.842Z" fill="white"/>
<path fill-rule="evenodd" clip-rule="evenodd" d="M30.3337 24.842C30.3337 27.7184 28.002 30.0496 25.1255 30.0496H15.1177C12.2412 30.0496 9.90952 27.7184 9.90952 24.842V14.8332C9.90952 11.9572 12.2412 9.62548 15.1177 9.62548H25.1255C28.002 9.62548 30.3337 11.9572 30.3337 14.8332V24.842ZM25.2637 13.3655C25.2637 12.548 25.9263 11.8854 26.7438 11.8854C27.5612 11.8854 28.2238 12.548 28.2238 13.3655C28.2238 14.1829 27.5607 14.8455 26.7438 14.8455C25.9268 14.8455 25.2637 14.1829 25.2637 13.3655ZM13.9473 19.9995C13.9473 16.5721 16.7364 13.783 20.1643 13.783C23.5923 13.783 26.3814 16.5716 26.3814 19.9995C26.3814 23.4275 23.5923 26.2165 20.1643 26.2165C16.7364 26.2165 13.9473 23.427 13.9473 19.9995Z" fill="url(#paint1_linear_37_801)"/>
<path fill-rule="evenodd" clip-rule="evenodd" d="M20 1.89945C10.0192 1.89945 1.89992 10.0192 1.89992 19.9995C1.89992 29.9798 10.0197 38.0996 20 38.0996C29.9803 38.0996 38.1001 29.9798 38.1001 19.9995C38.1001 10.0192 29.9808 1.89945 20 1.89945ZM25.1255 7.25058C29.3139 7.25058 32.7086 10.6453 32.7086 14.8332V24.842C32.7086 29.0299 29.3139 32.4245 25.1255 32.4245H15.1177C10.9293 32.4245 7.53461 29.0299 7.53461 24.842V14.8332C7.53461 10.6453 10.9293 7.25058 15.1177 7.25058H25.1255Z" fill="url(#paint2_linear_37_801)"/>
<path d="M20.1643 23.9827C17.9685 23.9827 16.1821 22.1958 16.1821 20C16.1821 17.8042 17.9685 16.0178 20.1643 16.0178C22.3602 16.0178 24.1471 17.8042 24.1471 20C24.1471 22.1958 22.3602 23.9827 20.1643 23.9827Z" fill="url(#paint3_linear_37_801)"/>
<path d="M20 40C8.97191 40 0 31.0276 0 20C0 8.97238 8.97238 0 20 0C31.0276 0 40 8.97238 40 20C40 31.0276 31.0281 40 20 40ZM20 1.89945C10.0192 1.89945 1.89992 10.0192 1.89992 19.9995C1.89992 29.9798 10.0197 38.0996 20 38.0996C29.9803 38.0996 38.1001 29.9798 38.1001 19.9995C38.1001 10.0192 29.9808 1.89945 20 1.89945ZM26.7438 11.8854C25.9263 11.8854 25.2637 12.548 25.2637 13.3655C25.2637 14.1829 25.9268 14.8455 26.7438 14.8455C27.5607 14.8455 28.2238 14.1829 28.2238 13.3655C28.2238 12.548 27.5612 11.8854 26.7438 11.8854ZM20.1643 13.783C16.7364 13.783 13.9473 16.5721 13.9473 19.9995C13.9473 23.427 16.7364 26.2165 20.1643 26.2165C23.5923 26.2165 26.3814 23.4275 26.3814 19.9995C26.3814 16.5716 23.5923 13.783 20.1643 13.783ZM20.1643 23.9827C17.9685 23.9827 16.1821 22.1958 16.1821 20C16.1821 17.8042 17.9685 16.0178 20.1643 16.0178C22.3602 16.0178 24.1471 17.8042 24.1471 20C24.1471 22.1958 22.3602 23.9827 20.1643 23.9827ZM32.7086 14.8332C32.7086 10.6453 29.3139 7.25058 25.1255 7.25058H15.1177C10.9293 7.25058 7.53461 10.6453 7.53461 14.8332V24.842C7.53461 29.0299 10.9293 32.4245 15.1177 32.4245H25.1255C29.3139 32.4245 32.7086 29.0299 32.7086 24.842V14.8332ZM30.3337 24.842C30.3337 27.7184 28.002 30.0496 25.1255 30.0496H15.1177C12.2412 30.0496 9.90952 27.7184 9.90952 24.842V14.8332C9.90952 11.9572 12.2412 9.62548 15.1177 9.62548H25.1255C28.002 9.62548 30.3337 11.9572 30.3337 14.8332V24.842Z" fill="url(#paint4_linear_37_801)"/>
<path d="M20 40C8.97191 40 0 31.0276 0 20C0 8.97238 8.97238 0 20 0C31.0276 0 40 8.97238 40 20C40 31.0276 31.0281 40 20 40ZM20 1.89945C10.0192 1.89945 1.89992 10.0192 1.89992 19.9995C1.89992 29.9798 10.0197 38.0996 20 38.0996C29.9803 38.0996 38.1001 29.9798 38.1001 19.9995C38.1001 10.0192 29.9808 1.89945 20 1.89945ZM26.7438 11.8854C25.9263 11.8854 25.2637 12.548 25.2637 13.3655C25.2637 14.1829 25.9268 14.8455 26.7438 14.8455C27.5607 14.8455 28.2238 14.1829 28.2238 13.3655C28.2238 12.548 27.5612 11.8854 26.7438 11.8854ZM20.1643 13.783C16.7364 13.783 13.9473 16.5721 13.9473 19.9995C13.9473 23.427 16.7364 26.2165 20.1643 26.2165C23.5923 26.2165 26.3814 23.4275 26.3814 19.9995C26.3814 16.5716 23.5923 13.783 20.1643 13.783ZM20.1643 23.9827C17.9685 23.9827 16.1821 22.1958 16.1821 20C16.1821 17.8042 17.9685 16.0178 20.1643 16.0178C22.3602 16.0178 24.1471 17.8042 24.1471 20C24.1471 22.1958 22.3602 23.9827 20.1643 23.9827ZM32.7086 14.8332C32.7086 10.6453 29.3139 7.25058 25.1255 7.25058H15.1177C10.9293 7.25058 7.53461 10.6453 7.53461 14.8332V24.842C7.53461 29.0299 10.9293 32.4245 15.1177 32.4245H25.1255C29.3139 32.4245 32.7086 29.0299 32.7086 24.842V14.8332ZM30.3337 24.842C30.3337 27.7184 28.002 30.0496 25.1255 30.0496H15.1177C12.2412 30.0496 9.90952 27.7184 9.90952 24.842V14.8332C9.90952 11.9572 12.2412 9.62548 15.1177 9.62548H25.1255C28.002 9.62548 30.3337 11.9572 30.3337 14.8332V24.842Z" fill="white"/>
<path fill-rule="evenodd" clip-rule="evenodd" d="M30.3337 24.842C30.3337 27.7184 28.002 30.0496 25.1255 30.0496H15.1177C12.2412 30.0496 9.90952 27.7184 9.90952 24.842V14.8332C9.90952 11.9572 12.2412 9.62548 15.1177 9.62548H25.1255C28.002 9.62548 30.3337 11.9572 30.3337 14.8332V24.842ZM25.2637 13.3655C25.2637 12.548 25.9263 11.8854 26.7438 11.8854C27.5612 11.8854 28.2238 12.548 28.2238 13.3655C28.2238 14.1829 27.5607 14.8455 26.7438 14.8455C25.9268 14.8455 25.2637 14.1829 25.2637 13.3655ZM13.9473 19.9995C13.9473 16.5721 16.7364 13.783 20.1643 13.783C23.5923 13.783 26.3814 16.5716 26.3814 19.9995C26.3814 23.4275 23.5923 26.2165 20.1643 26.2165C16.7364 26.2165 13.9473 23.427 13.9473 19.9995Z" fill="url(#paint5_linear_37_801)"/>
<path fill-rule="evenodd" clip-rule="evenodd" d="M20 1.89945C10.0192 1.89945 1.89992 10.0192 1.89992 19.9995C1.89992 29.9798 10.0197 38.0996 20 38.0996C29.9803 38.0996 38.1001 29.9798 38.1001 19.9995C38.1001 10.0192 29.9808 1.89945 20 1.89945ZM25.1255 7.25058C29.3139 7.25058 32.7086 10.6453 32.7086 14.8332V24.842C32.7086 29.0299 29.3139 32.4245 25.1255 32.4245H15.1177C10.9293 32.4245 7.53461 29.0299 7.53461 24.842V14.8332C7.53461 10.6453 10.9293 7.25058 15.1177 7.25058H25.1255Z" fill="url(#paint6_linear_37_801)"/>
<path d="M20.1643 23.9827C17.9685 23.9827 16.1821 22.1958 16.1821 20C16.1821 17.8042 17.9685 16.0178 20.1643 16.0178C22.3602 16.0178 24.1471 17.8042 24.1471 20C24.1471 22.1958 22.3602 23.9827 20.1643 23.9827Z" fill="url(#paint7_linear_37_801)"/>
<defs>
<linearGradient id="paint0_linear_37_801" x1="-131.16" y1="60.7607" x2="-81.5395" y2="18.5093" gradientUnits="userSpaceOnUse">
<stop offset="0.001" stop-color="#FBE18A"/>
<stop offset="0.209" stop-color="#FCBB45"/>
<stop offset="0.377" stop-color="#F75274"/>
<stop offset="0.524" stop-color="#D53692"/>
<stop offset="0.739" stop-color="#8F39CE"/>
<stop offset="1" stop-color="#5B4FE9"/>
</linearGradient>
<linearGradient id="paint1_linear_37_801" x1="3.84022" y1="33.7607" x2="53.4605" y2="-8.49075" gradientUnits="userSpaceOnUse">
<stop offset="0.001" stop-color="#FBE18A"/>
<stop offset="0.209" stop-color="#FCBB45"/>
<stop offset="0.377" stop-color="#F75274"/>
<stop offset="0.524" stop-color="#D53692"/>
<stop offset="0.739" stop-color="#8F39CE"/>
<stop offset="1" stop-color="#5B4FE9"/>
</linearGradient>
<linearGradient id="paint2_linear_37_801" x1="3.84022" y1="33.7607" x2="53.4605" y2="-8.49075" gradientUnits="userSpaceOnUse">
<stop offset="0.001" stop-color="#FBE18A"/>
<stop offset="0.209" stop-color="#FCBB45"/>
<stop offset="0.377" stop-color="#F75274"/>
<stop offset="0.524" stop-color="#D53692"/>
<stop offset="0.739" stop-color="#8F39CE"/>
<stop offset="1" stop-color="#5B4FE9"/>
</linearGradient>
<linearGradient id="paint3_linear_37_801" x1="3.84022" y1="33.7607" x2="53.4605" y2="-8.49075" gradientUnits="userSpaceOnUse">
<stop offset="0.001" stop-color="#FBE18A"/>
<stop offset="0.209" stop-color="#FCBB45"/>
<stop offset="0.377" stop-color="#F75274"/>
<stop offset="0.524" stop-color="#D53692"/>
<stop offset="0.739" stop-color="#8F39CE"/>
<stop offset="1" stop-color="#5B4FE9"/>
</linearGradient>
<linearGradient id="paint4_linear_37_801" x1="-131.16" y1="60.7607" x2="-81.5395" y2="18.5093" gradientUnits="userSpaceOnUse">
<stop offset="0.001" stop-color="#FBE18A"/>
<stop offset="0.209" stop-color="#FCBB45"/>
<stop offset="0.377" stop-color="#F75274"/>
<stop offset="0.524" stop-color="#D53692"/>
<stop offset="0.739" stop-color="#8F39CE"/>
<stop offset="1" stop-color="#5B4FE9"/>
</linearGradient>
<linearGradient id="paint5_linear_37_801" x1="3.84022" y1="33.7607" x2="53.4605" y2="-8.49075" gradientUnits="userSpaceOnUse">
<stop offset="0.001" stop-color="#FBE18A"/>
<stop offset="0.209" stop-color="#FCBB45"/>
<stop offset="0.377" stop-color="#F75274"/>
<stop offset="0.524" stop-color="#D53692"/>
<stop offset="0.739" stop-color="#8F39CE"/>
<stop offset="1" stop-color="#5B4FE9"/>
</linearGradient>
<linearGradient id="paint6_linear_37_801" x1="3.84022" y1="33.7607" x2="53.4605" y2="-8.49075" gradientUnits="userSpaceOnUse">
<stop offset="0.001" stop-color="#FBE18A"/>
<stop offset="0.209" stop-color="#FCBB45"/>
<stop offset="0.377" stop-color="#F75274"/>
<stop offset="0.524" stop-color="#D53692"/>
<stop offset="0.739" stop-color="#8F39CE"/>
<stop offset="1" stop-color="#5B4FE9"/>
</linearGradient>
<linearGradient id="paint7_linear_37_801" x1="3.84022" y1="33.7607" x2="53.4605" y2="-8.49075" gradientUnits="userSpaceOnUse">
<stop offset="0.001" stop-color="#FBE18A"/>
<stop offset="0.209" stop-color="#FCBB45"/>
<stop offset="0.377" stop-color="#F75274"/>
<stop offset="0.524" stop-color="#D53692"/>
<stop offset="0.739" stop-color="#8F39CE"/>
<stop offset="1" stop-color="#5B4FE9"/>
</linearGradient>
</defs>
</svg>
