<svg width="40" height="40" viewBox="0 0 40 40" fill="none" xmlns="http://www.w3.org/2000/svg">
<path d="M34.1719 5.81306C30.7566 2.41164 26.2159 0.361862 21.3954 0.0454317C16.5748 -0.270999 11.8031 1.16748 7.96869 4.09302C4.13429 7.01855 1.49859 11.2317 0.552399 15.948C-0.393789 20.6642 0.41403 25.5621 2.82543 29.7295L0 40.0003L10.558 37.2443C13.4782 38.8274 16.7502 39.6569 20.0753 39.6571H20.0838C24.0223 39.6567 27.8723 38.4939 31.1471 36.3157C34.422 34.1375 36.9746 31.0416 38.4824 27.4194C39.9902 23.7972 40.3855 19.8113 39.6183 15.9655C38.851 12.1197 36.9557 8.58672 34.1719 5.81306ZM20.0838 36.3095H20.0773C17.1129 36.3097 14.2029 35.5164 11.6521 34.0127L11.0474 33.6559L4.78137 35.2911L6.45405 29.2111L6.05989 28.5879C4.109 25.493 3.24652 21.8405 3.60804 18.2046C3.96956 14.5686 5.53457 11.1553 8.05704 8.50126C10.5795 5.84725 13.9164 4.10301 17.5432 3.54275C21.1699 2.9825 24.8809 3.63799 28.0927 5.40618C31.3044 7.17438 33.8349 9.955 35.2862 13.3109C36.7376 16.6669 37.0275 20.4078 36.1104 23.9457C35.1934 27.4835 33.1213 30.6177 30.22 32.8554C27.3188 35.0932 23.7527 36.3076 20.0826 36.3079L20.0838 36.3095Z" fill="#E0E0E0"/>
<path d="M0.914062 38.8608L3.61051 29.0576C1.52161 25.4492 0.686836 21.2556 1.23562 17.1269C1.7844 12.9983 3.68608 9.16514 6.64581 6.22189C9.60554 3.27865 13.458 1.38971 17.6058 0.847944C21.7536 0.306181 25.9651 1.14186 29.5874 3.22542C33.2096 5.30897 36.0401 8.524 37.6401 12.372C39.2402 16.2201 39.5203 20.4861 38.437 24.5087C37.3538 28.5314 34.9678 32.0859 31.6488 34.6211C28.3299 37.1564 24.2635 38.5308 20.0801 38.5312H20.0717C16.8993 38.5305 13.7775 37.7391 10.9911 36.2292L0.91567 38.8592L0.914062 38.8608Z" fill="url(#paint0_linear_37_793)"/>
<path fill-rule="evenodd" clip-rule="evenodd" d="M15.1622 11.4055C14.7937 10.5899 14.4056 10.5735 14.0552 10.5595C13.7683 10.5471 13.4401 10.5479 13.1126 10.5479C12.8633 10.5544 12.6181 10.6122 12.3923 10.7177C12.1665 10.8232 11.9651 10.974 11.8007 11.1607C11.2445 11.685 10.8041 12.3189 10.5076 13.0221C10.2111 13.7252 10.065 14.4822 10.0786 15.2447C10.0786 17.6543 11.8417 19.9827 12.0876 20.3095C12.3335 20.6363 15.4908 25.7387 20.4908 27.7015C24.6462 29.3327 25.4919 29.0083 26.394 28.9267C27.296 28.8451 29.3042 27.7423 29.7144 26.5987C30.1246 25.4551 30.1242 24.4751 30.0013 24.2703C29.8783 24.0655 29.5505 23.9439 29.0583 23.6987C28.5661 23.4535 26.1481 22.2687 25.6968 22.1055C25.2456 21.9423 24.9178 21.8607 24.5899 22.3511C24.262 22.8415 23.3198 23.9435 23.0325 24.2711C22.7453 24.5987 22.4584 24.6391 21.9666 24.3943C20.5164 23.8187 19.1778 22.9963 18.0109 21.9639C16.9353 20.9743 16.0131 19.8315 15.2743 18.5727C14.9874 18.0831 15.2433 17.8175 15.4904 17.5727C15.7114 17.3535 15.9822 17.0011 16.2285 16.7151C16.4304 16.4675 16.5959 16.1926 16.7199 15.8987C16.7854 15.7636 16.8161 15.6144 16.8091 15.4646C16.802 15.3148 16.7576 15.1691 16.6797 15.0407C16.5556 14.7955 15.5993 12.3739 15.1622 11.4055Z" fill="white"/>
<path d="M34.0092 5.74991C30.6339 2.38523 26.145 0.356892 21.3788 0.0428212C16.6127 -0.271249 11.8944 1.15037 8.10302 4.0428C4.31167 6.93523 1.70587 11.1012 0.771138 15.7645C-0.163596 20.4278 0.636487 25.2703 3.02232 29.3899L0.229431 39.5447L10.6661 36.8203C13.5527 38.3853 16.7872 39.2053 20.0741 39.2055H20.0826C23.9762 39.2058 27.7824 38.0567 31.0201 35.9036C34.2578 33.7505 36.7814 30.6901 38.2721 27.1092C39.7627 23.5283 40.1533 19.5878 39.3945 15.7859C38.6358 11.9841 36.7617 8.49152 34.0092 5.74991ZM20.0826 35.8963H20.0782C17.1476 35.8966 14.2709 35.1124 11.7493 33.6259L11.1515 33.2731L4.95656 34.8895L6.60995 28.8783L6.22061 28.2623C4.29218 25.2029 3.4397 21.5922 3.79718 17.9979C4.15467 14.4036 5.70185 11.0295 8.1955 8.40593C10.6892 5.7824 13.9879 4.05824 17.5731 3.5045C21.1583 2.95077 24.8267 3.59885 28.0016 5.34686C31.1765 7.09488 33.6779 9.84371 35.1126 13.1612C36.5472 16.4788 36.8337 20.1768 35.9271 23.6741C35.0204 27.1714 32.9721 30.2696 30.104 32.4817C27.2359 34.6937 23.7107 35.8942 20.0826 35.8943V35.8963Z" fill="white"/>
<defs>
<linearGradient id="paint0_linear_37_793" x1="19.9997" y1="38.8608" x2="19.9997" y2="0.687134" gradientUnits="userSpaceOnUse">
<stop stop-color="#20B038"/>
<stop offset="1" stop-color="#60D66A"/>
</linearGradient>
</defs>
</svg>
